<svg id="Layer_1" data-name="Layer 1" xmlns="http://www.w3.org/2000/svg" viewBox="0 0 83.67 92.2"><defs><style>.cls-1{fill:#f2f2f2;}</style></defs><title>logo</title><path class="cls-1" d="M91.63,86.3s-19.83-33-20.23-33.73c-.86-1.62-1-2.51-.23-4.1.36-.74,20.35-33.65,20.35-33.65A6.75,6.75,0,1,0,80,7.85S61,39.24,60.11,40.7a6.3,6.3,0,0,1-5,3C54,43.86,15.45,46,15.45,46a6.75,6.75,0,0,0,.77,13.49l38.06-2c2.07-.16,3.78-.34,5.5,2,.9,1.2,20.6,34.31,20.6,34.31A6.75,6.75,0,0,0,91.63,86.3" transform="translate(-9.08 -4.59)"/></svg>