<?xml version="1.0" encoding="iso-8859-1"?>
<!-- Generator: Adobe Illustrator 22.1.0, SVG Export Plug-In . SVG Version: 6.00 Build 0)  -->
<svg xmlns="http://www.w3.org/2000/svg" xmlns:xlink="http://www.w3.org/1999/xlink" version="1.1" id="Layer_1_1_" x="0px" y="0px" viewBox="0 0 64 64" style="enable-background:new 0 0 64 64;" xml:space="preserve" width="512" height="512">
<linearGradient id="SVGID_1_" gradientUnits="userSpaceOnUse" x1="32" y1="63" x2="32" y2="1">
	<stop offset="0" style="stop-color:#9F2FFF"/>
	<stop offset="1" style="stop-color:#0BB1D3"/>
</linearGradient>
<path style="fill:url(#SVGID_1_);" d="M6,63h26c2.757,0,5-2.243,5-5V40h-2v13H3V9h32v5.94h2V6c0-2.757-2.243-5-5-5H6  C3.243,1,1,3.243,1,6v52C1,60.757,3.243,63,6,63z M35,55v3c0,1.654-1.346,3-3,3H6c-1.654,0-3-1.346-3-3v-3H35z M6,3h26  c1.654,0,3,1.346,3,3v1H3V6C3,4.346,4.346,3,6,3z M22,59h-6v-2h6V59z M53,14c0-0.552-0.448-1-1-1c-1.654,0-3-1.346-3-3  c0-1.302,0.839-2.402,2-2.816V5h2v2.184c1.161,0.414,2,1.514,2,2.816h-2c0-0.552-0.448-1-1-1s-1,0.448-1,1s0.448,1,1,1  c1.654,0,3,1.346,3,3c0,1.302-0.839,2.402-2,2.816V19h-2v-2.184c-1.161-0.414-2-1.514-2-2.816h2c0,0.552,0.448,1,1,1  S53,14.552,53,14z M52,23c6.065,0,11-4.935,11-11S58.065,1,52,1S41,5.935,41,12c0,1.167,0.186,2.29,0.524,3.346l-10.53,4.455  c-0.718-1.197-1.609-2.297-2.67-3.245c-2.968-2.651-6.956-3.911-10.95-3.465C11.104,13.8,5.953,18.849,5.126,25.098  c-0.59,4.455,0.904,8.796,4.099,11.91c0.262,0.255,0.493,0.536,0.704,0.832C9.359,38.386,9,39.15,9,40  c0,1.388,0.952,2.548,2.234,2.889C12.095,46.421,15.307,49,19,49s6.905-2.579,7.766-6.111C28.048,42.548,29,41.388,29,40  c0-0.852-0.361-1.618-0.933-2.164c0.205-0.286,0.43-0.557,0.683-0.803c0.882-0.856,1.622-1.814,2.24-2.835l10.534,4.457  C41.186,39.71,41,40.833,41,42c0,4.264,2.444,7.961,6,9.786v10.832l5-2.5l5,2.5V51.786c3.556-1.825,6-5.521,6-9.786  c0-6.065-4.935-11-11-11c-4.19,0-7.838,2.356-9.695,5.812l-10.391-4.396C32.626,30.726,33,28.894,33,27  c0-1.878-0.391-3.712-1.103-5.409l10.408-4.403C44.162,20.644,47.81,23,52,23z M55,59.382l-3-1.5l-3,1.5v-6.808  C49.955,52.845,50.959,53,52,53s2.045-0.155,3-0.426V59.382z M52,33c4.963,0,9,4.037,9,9s-4.037,9-9,9s-9-4.037-9-9S47.037,33,52,33  z M19,47c-2.56,0-4.806-1.657-5.641-4h11.282C23.806,45.343,21.56,47,19,47z M26,41h-0.079h-0.866H12.945H12c-0.552,0-1-0.448-1-1  s0.448-1,1-1h14c0.552,0,1,0.448,1,1S26.552,41,26,41z M19,29c-1.103,0-2-0.897-2-2s0.897-2,2-2s2,0.897,2,2S20.103,29,19,29z   M31,27c0,1.621-0.32,3.189-0.929,4.637l-3.681-1.557l-0.779,1.842l3.518,1.488c-0.5,0.784-1.085,1.523-1.772,2.189  c-0.437,0.425-0.802,0.912-1.13,1.425C26.15,37.017,26.077,37,26,37h-6v-6.142c1.721-0.447,3-1.999,3-3.858c0-2.206-1.794-4-4-4  s-4,1.794-4,4c0,1.859,1.279,3.411,3,3.858V37h-6c-0.079,0-0.154,0.017-0.232,0.023c-0.333-0.52-0.703-1.014-1.147-1.447  c-2.738-2.669-4.019-6.394-3.513-10.217c0.709-5.35,5.12-9.674,10.49-10.279c3.478-0.399,6.811,0.662,9.393,2.968  c0.838,0.749,1.545,1.612,2.135,2.544l-3.515,1.487l0.779,1.842l3.667-1.551C30.665,23.823,31,25.393,31,27z M52,3  c4.963,0,9,4.037,9,9s-4.037,9-9,9s-9-4.037-9-9S47.037,3,52,3z M52,47c2.757,0,5-2.243,5-5s-2.243-5-5-5s-5,2.243-5,5  S49.243,47,52,47z M52,39c1.654,0,3,1.346,3,3s-1.346,3-3,3s-3-1.346-3-3S50.346,39,52,39z"/>
</svg>
