<?xml version="1.0" encoding="iso-8859-1"?>
<!-- Generator: Adobe Illustrator 22.1.0, SVG Export Plug-In . SVG Version: 6.00 Build 0)  -->
<svg xmlns="http://www.w3.org/2000/svg" xmlns:xlink="http://www.w3.org/1999/xlink" version="1.1" id="Layer_1_1_" x="0px" y="0px" viewBox="0 0 64 64" style="enable-background:new 0 0 64 64;" xml:space="preserve" width="512" height="512">
<linearGradient id="SVGID_1_" gradientUnits="userSpaceOnUse" x1="32" y1="1" x2="32" y2="63" gradientTransform="matrix(1 0 0 -1 0 64)">
	<stop offset="0" style="stop-color:#9F2FFF"/>
	<stop offset="1" style="stop-color:#0BB1D3"/>
</linearGradient>
<path style="fill:url(#SVGID_1_);" d="M32,40c4.963,0,9-4.038,9-9s-4.037-9-9-9s-9,4.038-9,9S27.037,40,32,40z M32,24  c3.859,0,7,3.14,7,7s-3.141,7-7,7s-7-3.14-7-7S28.141,24,32,24z M32,36c2.757,0,5-2.243,5-5c0-2.757-2.243-5-5-5s-5,2.243-5,5  S29.243,36,32,36z M32,28c1.654,0,3,1.346,3,3s-1.346,3-3,3s-3-1.346-3-3S30.346,28,32,28z M37,63V52.535l18-12V31h-7v-3.771  l-3.934-1.038c-0.043-0.108-0.088-0.216-0.135-0.324l2.048-3.516l-5.332-5.332l-3.516,2.048c-0.107-0.046-0.216-0.091-0.324-0.135  L35.771,15H28.23l-1.037,3.933c-0.108,0.043-0.217,0.088-0.324,0.135l-3.516-2.048l-5.332,5.332l2.048,3.516  c-0.047,0.108-0.092,0.216-0.135,0.324L16,27.229V31H9v9.535l18,12V63H37z M18,28.771l3.455-0.912l0.176-0.5  c0.132-0.374,0.287-0.749,0.463-1.114l0.229-0.478l-1.799-3.089l3.152-3.153l3.09,1.8l0.479-0.23  c0.363-0.175,0.738-0.331,1.113-0.462l0.501-0.176L29.771,17h4.459l0.911,3.455l0.501,0.176c0.375,0.132,0.75,0.288,1.113,0.462  l0.479,0.23l3.09-1.8l3.152,3.153l-1.799,3.089l0.229,0.478c0.176,0.366,0.331,0.741,0.463,1.114l0.176,0.5L46,28.771v4.459  l-3.455,0.912l-0.176,0.5c-0.132,0.374-0.287,0.749-0.463,1.114l-0.229,0.478l1.799,3.089l-3.152,3.153l-3.09-1.8l-0.479,0.23  c-0.363,0.175-0.738,0.331-1.113,0.462l-0.501,0.176L34.229,45H29.77l-0.911-3.455l-0.501-0.176  c-0.375-0.132-0.75-0.288-1.113-0.462l-0.479-0.23l-3.09,1.8l-3.152-3.153l1.799-3.089l-0.229-0.478  c-0.176-0.366-0.331-0.741-0.463-1.114l-0.176-0.5L18,33.229V28.771z M11,39.465V33h5v1.771l3.934,1.038  c0.043,0.108,0.088,0.216,0.135,0.324l-2.048,3.516l5.332,5.332l3.516-2.048c0.107,0.046,0.216,0.091,0.324,0.135L28.229,47h7.541  l1.037-3.933c0.108-0.043,0.217-0.088,0.324-0.135l3.516,2.048l5.332-5.332l-2.048-3.516c0.047-0.108,0.092-0.216,0.135-0.324  L48,34.771V33h5v6.465l-18,12V61h-6v-9.535L11,39.465z M34,1c6.056,0,11.322,4.272,12.658,10.096C52.768,10.233,58,15.045,58,21  c0,3.824-2.129,7.257-5.555,8.96l-0.891-1.791C54.297,26.807,56,24.06,56,21c0-4.411-3.589-8-8-8c-0.616,0-1.256,0.08-1.902,0.238  l-1.069,0.261l-0.157-1.089C44.093,7.045,39.419,3,34,3c-4.094,0-7.824,2.257-9.736,5.89l-0.406,0.771l-0.819-0.297  C22.372,9.123,21.687,9,21,9c-2.986,0-5.54,2.232-5.938,5.192l-0.104,0.77l-0.772,0.089C10.659,15.46,8,18.447,8,22  c0,2.543,1.384,4.891,3.61,6.126l-0.971,1.749C7.778,28.287,6,25.27,6,22c0-4.316,3.053-7.984,7.216-8.818  C14.048,9.609,17.271,7,21,7c0.64,0,1.277,0.079,1.904,0.235C25.261,3.369,29.439,1,34,1z M6,39.586l4.707,4.707l-1.414,1.414  L7,43.414V53H5v-9.586l-2.293,2.293l-1.414-1.414L6,39.586z M7,57H5v-2h2V57z M5,59h2v2H5V59z M58,62.414l-4.707-4.707l1.414-1.414  L57,58.586V49h2v9.586l2.293-2.293l1.414,1.414L58,62.414z M57,45h2v2h-2V45z M59,43h-2v-2h2V43z M15,19c-1.654,0-3,1.346-3,3h-2  c0-2.757,2.243-5,5-5V19z M29.05,9.05l-1.414-1.414c3.51-3.509,9.219-3.509,12.729,0L38.951,9.05  C36.22,6.322,31.78,6.322,29.05,9.05z M52,21c0-2.206-1.794-4-4-4v-2c3.309,0,6,2.691,6,6H52z"/>
</svg>
